<svg width="18" height="18" viewBox="0 0 18 18" fill="none" xmlns="http://www.w3.org/2000/svg">
<g clip-path="url(#clip0_297083_8305)">
<path d="M14.7263 10.8651L12.8881 10.6552C12.4467 10.6046 12.0125 10.7566 11.7013 11.0677L10.3697 12.3993C8.3217 11.3572 6.64276 9.68551 5.60067 7.63025L6.93947 6.29144C7.25065 5.98025 7.40263 5.54605 7.35197 5.1046L7.1421 3.28092C7.05526 2.55 6.44013 2 5.70198 2H4.45002C3.63226 2 2.952 2.68026 3.00266 3.49802C3.38621 9.67827 8.32893 14.6138 14.5019 14.9973C15.3197 15.048 15.9999 14.3677 15.9999 13.55V12.298C16.0072 11.5671 15.4572 10.952 14.7263 10.8651V10.8651Z" fill="#2E2F42"/>
</g>
<defs>
<clipPath id="clip0_297083_8305">
<rect width="18" height="18" fill="white"/>
</clipPath>
</defs>
</svg>
